<svg xmlns="http://www.w3.org/2000/svg" width="150" height="92.625" viewBox="0 0 150 92.625">
  <g id="Group_488" data-name="Group 488" transform="translate(-113 -163.939)">
    <path id="Path_350" data-name="Path 350" d="M1348.693,1090.691h0v-2.321l-6.027,4.125,6.027,4.124V1094.3a7.053,7.053,0,0,1,.023,14.107h-.025a7.052,7.052,0,0,1-7.052-7.03l-3.609.01a10.661,10.661,0,0,0,10.66,10.628h.038a10.663,10.663,0,0,0-.035-21.325Z" transform="translate(-1106.826 -878.804)" fill="#ff4a31"/>
    <g id="Group_485" data-name="Group 485">
      <ellipse id="Ellipse_35" data-name="Ellipse 35" cx="71.28" cy="5.121" rx="71.28" ry="5.121" transform="translate(114.6 246.323)" fill="#d3d3d3" opacity="0.22"/>
      <path id="Path_351" data-name="Path 351" d="M680.942,870.526l-11.91,6.927V863.721H665.75v13.733l-11.91-6.927-1.7,3.16,11.91,6.806-11.91,6.806,1.7,3.281,11.91-6.927v13.733h3.281V883.651l11.91,6.927,1.7-3.281-12.032-6.806,12.032-6.806Z" transform="translate(-523.818 -687.852)" fill="#1eb5fc"/>
      <path id="Path_352" data-name="Path 352" d="M931.3,870.526l-11.91,6.927V863.721h-3.281v13.733l-11.91-6.927-1.7,3.16,11.91,6.806L902.5,887.3l1.7,3.281,11.91-6.927v13.733h3.281V883.651l11.91,6.927L933,887.3l-12.032-6.806L933,873.686Z" transform="translate(-736.622 -687.852)" fill="#1eb5fc"/>
      <path id="Path_353" data-name="Path 353" d="M1154.556,890.579l11.91-6.927v13.733h3.281V883.651l11.91,6.927,1.7-3.281-12.032-6.806,12.032-6.806-1.7-3.16-11.91,6.927V863.721h-3.281v13.733l-11.91-6.927-1.7,3.16,11.91,6.806-11.91,6.806Z" transform="translate(-949.426 -687.852)" fill="#1eb5fc"/>
      <rect id="Rectangle_143" data-name="Rectangle 143" width="30.505" height="3.243" transform="translate(128.321 214.763)" fill="#1eb5fc"/>
      <rect id="Rectangle_144" data-name="Rectangle 144" width="30.505" height="3.243" transform="translate(165.874 214.763)" fill="#1eb5fc"/>
      <path id="Path_354" data-name="Path 354" d="M686.254,823V792.476a8.3,8.3,0,0,0-8.286-8.286H558.285A8.3,8.3,0,0,0,550,792.476V841.9a8.3,8.3,0,0,0,8.285,8.286H659.069A21.132,21.132,0,1,0,686.254,823ZM558.285,846.578a4.682,4.682,0,0,1-4.677-4.677V792.476a4.682,4.682,0,0,1,4.677-4.677H677.968a4.683,4.683,0,0,1,4.677,4.677v29.536a21.092,21.092,0,0,0-23.418,13h-18.8v3.243h17.8a20.946,20.946,0,0,0-.152,8.321Zm120.581,13.746A17.524,17.524,0,1,1,696.391,842.8,17.544,17.544,0,0,1,678.867,860.324Z" transform="translate(-437 -620.251)" fill="#1eb5fc"/>
    </g>
  </g>
</svg>
