<svg xmlns="http://www.w3.org/2000/svg" width="118.122" height="111.402" viewBox="0 0 118.122 111.402">
  <g id="Group_11455" data-name="Group 11455" transform="translate(-122.533 -146.483)">
    <ellipse id="Ellipse_36" data-name="Ellipse 36" cx="46.28" cy="5.121" rx="46.28" ry="5.121" transform="translate(141.6 247.644)" fill="#d3d3d3" opacity="0.22"/>
    <g id="Group_3421" data-name="Group 3421" transform="translate(124.264 145.785)">
      <g id="Group_3419" data-name="Group 3419" transform="translate(0 0)">
        <path id="Path_11692" data-name="Path 11692" d="M15.863.356c8.761.2,16.023,7.932,16.22,17.276l.884,41.989c.2,9.345-6.746,16.76-15.507,16.563S1.437,68.253,1.241,58.908L.356,16.92C.16,7.575,7.1.16,15.863.356Z" transform="translate(48.024 1.812) rotate(17)" fill="#0c78cd"/>
        <path id="Path_11693" data-name="Path 11693" d="M14.191.335c7.838.185,14.341,7.1,14.526,15.448l1.009,45.545c.185,8.347-6.019,14.963-13.856,14.778S1.529,69,1.344,60.658L.335,15.113C.15,6.766,6.354.15,14.191.335Z" transform="matrix(0.951, 0.309, -0.309, 0.951, 52.517, 2.845)" fill="#fff"/>
        <g id="meds_1_" data-name="meds (1)" transform="matrix(0.883, -0.469, 0.469, 0.883, 14.955, 30.092)">
          <path id="Path_11489" data-name="Path 11489" d="M55.541,3.036a14.5,14.5,0,0,0-11.1-4.5A16.563,16.563,0,0,0,33.026,3.778L18.3,19.139,3.57,34.5A18.025,18.025,0,0,0-1.464,46.414a15.878,15.878,0,0,0,4.292,11.6,14.5,14.5,0,0,0,11.1,4.5,16.562,16.562,0,0,0,11.411-5.242L40.071,41.914,54.8,26.551a18.025,18.025,0,0,0,5.034-11.912,15.878,15.878,0,0,0-4.292-11.6Zm-33.1,51.2a12.151,12.151,0,0,1-8.368,3.845,10.632,10.632,0,0,1-8.143-3.3,11.644,11.644,0,0,1-3.147-8.508,13.222,13.222,0,0,1,3.691-8.736L19.651,23.793,35.618,40.5ZM51.9,23.515,38.718,37.261l-15.967-16.7L35.929,6.814A12.149,12.149,0,0,1,44.3,2.97a10.632,10.632,0,0,1,8.142,3.3,11.644,11.644,0,0,1,3.147,8.508A13.224,13.224,0,0,1,51.9,23.515Zm0,0" transform="translate(0 0)" fill="#1185e0"/>
          <path id="Path_11490" data-name="Path 11490" d="M13.268,7.371a1.949,1.949,0,0,1-1.723-.906A4.874,4.874,0,0,0,7.237,4.191a5.52,5.52,0,0,0-3.8,1.747,2.062,2.062,0,0,1-3,.1A2.291,2.291,0,0,1,.529,2.9,9.935,9.935,0,0,1,7.376-.243a8.771,8.771,0,0,1,7.75,4.086,2.348,2.348,0,0,1-.649,3.1,2.169,2.169,0,0,1-1.21.427Zm0,0" transform="translate(36.375 5.928)" fill="#ff4a31"/>
        </g>
        <g id="Group_3416" data-name="Group 3416" transform="translate(0 26.273)">
          <path id="Path_11694" data-name="Path 11694" d="M15.31-.578A13.867,13.867,0,0,1,30.042,13.909L28.608,51.338A16.661,16.661,0,0,1,12.72,66.98,13.867,13.867,0,0,1-2.012,52.493L-.578,15.064A16.661,16.661,0,0,1,15.31-.578Z" transform="translate(0 24.523) rotate(-51)" fill="#0c78cd"/>
          <path id="Path_11695" data-name="Path 11695" d="M11.938-.45a10.812,10.812,0,0,1,11.487,11.3L21.98,48.54a12.991,12.991,0,0,1-12.388,12.2A10.812,10.812,0,0,1-1.9,49.441L-.45,11.746A12.991,12.991,0,0,1,11.938-.45Z" transform="translate(5.926 24.344) rotate(-51)" fill="#fff"/>
          <g id="meds_2_" data-name="meds (2)" transform="matrix(-0.07, -0.998, 0.998, -0.07, 10.162, 65.715)">
            <path id="Path_11492" data-name="Path 11492" d="M13.486,6.964a2.192,2.192,0,0,1-1.75-.859A5.48,5.48,0,0,0,7.362,3.949,5.408,5.408,0,0,0,3.635,5.362,2.233,2.233,0,0,1,.649,5.347,1.855,1.855,0,0,1,.633,2.581,9.733,9.733,0,0,1,7.34.038a9.862,9.862,0,0,1,7.87,3.874,1.859,1.859,0,0,1-.534,2.717,2.205,2.205,0,0,1-1.189.335Zm0,0" transform="translate(35.462 7.193)" fill="#ff4a31"/>
            <path id="Path_11494" data-name="Path 11494" d="M53.5,4.55A16.089,16.089,0,0,0,42.657.332a15.6,15.6,0,0,0-10.772,4.05L18.3,16.912,4.723,29.444A13.273,13.273,0,0,0,.331,39.387,13.727,13.727,0,0,0,4.891,49.4a16.089,16.089,0,0,0,10.841,4.218A15.6,15.6,0,0,0,26.5,49.567l13.581-12.53L53.666,24.5a13.272,13.272,0,0,0,4.392-9.943A13.727,13.727,0,0,0,53.5,4.55ZM23.6,46.884a11.444,11.444,0,0,1-7.9,2.97A11.8,11.8,0,0,1,7.75,46.76a10.067,10.067,0,0,1-3.344-7.341,9.736,9.736,0,0,1,3.221-7.292L19.779,20.914,35.751,35.673ZM50.762,21.822,38.61,33.035,22.638,18.276,34.79,7.065a11.443,11.443,0,0,1,7.9-2.97,11.8,11.8,0,0,1,7.95,3.093,10.067,10.067,0,0,1,3.344,7.341,9.737,9.737,0,0,1-3.22,7.293Zm0,0" transform="translate(0.011 1.873) rotate(-2)" fill="#1185e0"/>
          </g>
        </g>
      </g>
      <g id="Group_3420" data-name="Group 3420" transform="matrix(0.809, 0.588, -0.588, 0.809, 70.749, 22.739)">
        <path id="Path_11696" data-name="Path 11696" d="M13.647-.274C21.183-.426,27.17,5.986,27.019,14.048l-.682,36.269c-.152,8.062-6.384,14.72-13.921,14.872S-1.108,58.928-.957,50.866L-.274,14.6C-.123,6.535,6.11-.123,13.647-.274Z" transform="translate(0.812 22.213) rotate(-51)" fill="#0c78cd"/>
        <path id="Path_11697" data-name="Path 11697" d="M10.641-.214c5.877-.118,10.545,4.882,10.427,11.168L20.381,47.48c-.118,6.286-4.978,11.478-10.855,11.6S-1.019,54.194-.9,47.908l.687-36.526C-.1,5.1,4.764-.1,10.641-.214Z" transform="translate(6.47 22.263) rotate(-51)" fill="#fff"/>
        <g id="meds_2_2" data-name="meds (2)" transform="matrix(-0.07, -0.998, 0.998, -0.07, 11.888, 59.889)">
          <path id="Path_11492-2" data-name="Path 11492" d="M12.013,6.133a1.8,1.8,0,0,1-1.56-.753,4.5,4.5,0,0,0-3.9-1.891A5.214,5.214,0,0,0,3.1,4.967a1.974,1.974,0,0,1-2.72.093A1.818,1.818,0,0,1,.476,2.431,9.384,9.384,0,0,1,6.684-.23a8.093,8.093,0,0,1,7.018,3.4,1.882,1.882,0,0,1-.592,2.6,2.079,2.079,0,0,1-1.1.362Zm0,0" transform="translate(32.021 5.554)" fill="#ff4a31"/>
          <path id="Path_11494-2" data-name="Path 11494" d="M48.689,2.306a13.282,13.282,0,0,0-9.734-3.592,15.16,15.16,0,0,0-10,4.244l-12.91,12.39L3.131,27.74a13.968,13.968,0,0,0-4.413,9.592,12.15,12.15,0,0,0,3.763,9.321,13.282,13.282,0,0,0,9.734,3.592,15.159,15.159,0,0,0,10-4.244l12.911-12.39L48.039,21.219a13.967,13.967,0,0,0,4.412-9.592,12.15,12.15,0,0,0-3.763-9.321ZM19.673,43.567a11.121,11.121,0,0,1-7.336,3.113A9.741,9.741,0,0,1,5.2,44.045,8.91,8.91,0,0,1,2.44,37.21a10.246,10.246,0,0,1,3.236-7.035L17.227,19.087l14,13.394ZM45.495,18.785,33.943,29.872l-14-13.394L31.5,5.392A11.12,11.12,0,0,1,38.833,2.28a9.741,9.741,0,0,1,7.138,2.635,8.91,8.91,0,0,1,2.759,6.835,10.247,10.247,0,0,1-3.235,7.035Zm0,0" transform="translate(-0.063 1.78) rotate(-2)" fill="#1185e0"/>
        </g>
      </g>
    </g>
  </g>
</svg>
