<svg xmlns="http://www.w3.org/2000/svg" width="99.499" height="113.208" viewBox="0 0 99.499 113.208">
  <g id="shield" transform="translate(-31)">
    <path id="Path_593" data-name="Path 593" d="M127.182,13.267a9.936,9.936,0,0,1-9.95-9.95V0H44.267V3.317a9.936,9.936,0,0,1-9.95,9.95H31V47.892c0,29.916,20.1,56.825,48.821,65.051l.929.265.929-.265C110.4,104.717,130.5,77.808,130.5,47.892V13.267Z" fill="#76e2f8"/>
    <path id="Path_594" data-name="Path 594" d="M305.749,13.267V47.892c0,29.916-20.1,56.825-48.821,65.051l-.929.265V0h36.483V3.317a9.936,9.936,0,0,0,9.95,9.95Z" transform="translate(-175.251)" fill="#4bb9ec"/>
    <path id="Path_595" data-name="Path 595" d="M162.307,70.149a23.679,23.679,0,0,1-8.491-8.491L152.822,60H102.144l-.995,1.658a23.679,23.679,0,0,1-8.491,8.491L91,71.144V94.625c0,22.487,14.2,43.36,35.355,51.187l1.127.4,1.127-.4c21.16-7.827,35.355-28.7,35.355-51.187V71.144Z" transform="translate(-46.733 -46.733)" fill="#697c86"/>
    <path id="Path_596" data-name="Path 596" d="M292.483,71.144V94.625c0,22.487-14.2,43.36-35.355,51.187l-1.127.4V60h25.339l.995,1.658a23.679,23.679,0,0,0,8.491,8.491Z" transform="translate(-175.251 -46.733)" fill="#465a61"/>
    <path id="Path_597" data-name="Path 597" d="M230.9,129.95v6.633h-6.633V129.95a3.317,3.317,0,0,0-6.633,0v6.633H211V129.95a9.95,9.95,0,0,1,19.9,0Z" transform="translate(-140.2 -93.467)" fill="#ff8574"/>
    <path id="Path_598" data-name="Path 598" d="M265.95,129.95v6.633h-6.633V129.95A3.284,3.284,0,0,0,256,126.633V120A9.936,9.936,0,0,1,265.95,129.95Z" transform="translate(-175.251 -93.467)" fill="#ff4a31"/>
    <path id="Path_599" data-name="Path 599" d="M181,180v33.387h33.166V180Z" transform="translate(-116.834 -140.2)" fill="#ff8574"/>
    <path id="Path_600" data-name="Path 600" d="M256,180h16.583v33.387H256V180Z" transform="translate(-175.251 -140.2)" fill="#ff4a31"/>
    <path id="Path_601" data-name="Path 601" d="M241,241h6.633v6.633H241Z" transform="translate(-163.567 -187.713)" fill="#697c86"/>
    <path id="Path_602" data-name="Path 602" d="M256,241h3.317v6.633H256Z" transform="translate(-175.251 -187.713)" fill="#465a61"/>
  </g>
</svg>
